<mxfile host="app.diagrams.net" modified="2022-03-13T20:24:53.130Z" agent="5.0 (Windows)" etag="CL49ahyf08hmOh-0BIpa" version="17.1.2" type="github">
  <diagram id="RnFnm8cI24RUhIHQ4RaV" name="Page-1">
    <mxGraphModel dx="1185" dy="627" grid="1" gridSize="10" guides="1" tooltips="1" connect="1" arrows="1" fold="1" page="1" pageScale="1" pageWidth="827" pageHeight="1169" math="0" shadow="0">
      <root>
        <mxCell id="0" />
        <mxCell id="1" parent="0" />
        <mxCell id="sUBBfoWSyGXVU3_cliYD-1" value="&lt;div&gt;&lt;br&gt;&lt;/div&gt;&lt;div&gt;&lt;br&gt;&lt;/div&gt;" style="shape=folder;fontStyle=1;spacingTop=10;tabWidth=40;tabHeight=14;tabPosition=left;html=1;" vertex="1" parent="1">
          <mxGeometry x="20" y="40" width="790" height="190" as="geometry" />
        </mxCell>
        <mxCell id="sUBBfoWSyGXVU3_cliYD-2" value="&lt;&lt;component&gt;&gt;&#xa;AuthenticationPresentation&#xa;" style="shape=module;align=left;spacingLeft=20;align=center;verticalAlign=top;" vertex="1" parent="1">
          <mxGeometry x="30" y="110" width="180" height="60" as="geometry" />
        </mxCell>
        <mxCell id="sUBBfoWSyGXVU3_cliYD-3" value="SimuDest Presentation" style="text;align=center;fontStyle=1;verticalAlign=middle;spacingLeft=3;spacingRight=3;strokeColor=none;rotatable=0;points=[[0,0.5],[1,0.5]];portConstraint=eastwest;" vertex="1" parent="1">
          <mxGeometry x="375" y="60" width="80" height="26" as="geometry" />
        </mxCell>
        <mxCell id="sUBBfoWSyGXVU3_cliYD-5" value="&lt;&lt;component&gt;&gt;&#xa;AdministrationPresentation&#xa;" style="shape=module;align=left;spacingLeft=20;align=center;verticalAlign=top;" vertex="1" parent="1">
          <mxGeometry x="230" y="110" width="180" height="60" as="geometry" />
        </mxCell>
        <mxCell id="sUBBfoWSyGXVU3_cliYD-6" value="&lt;&lt;component&gt;&gt;&#xa;MainPresentation&#xa;" style="shape=module;align=left;spacingLeft=20;align=center;verticalAlign=top;" vertex="1" parent="1">
          <mxGeometry x="428" y="110" width="161" height="60" as="geometry" />
        </mxCell>
        <mxCell id="sUBBfoWSyGXVU3_cliYD-7" value="&lt;&lt;component&gt;&gt;&#xa;ConvocatoriaPresentation&#xa;" style="shape=module;align=left;spacingLeft=20;align=center;verticalAlign=top;" vertex="1" parent="1">
          <mxGeometry x="608" y="110" width="181" height="60" as="geometry" />
        </mxCell>
        <mxCell id="sUBBfoWSyGXVU3_cliYD-15" value="&lt;div&gt;&lt;br&gt;&lt;/div&gt;&lt;div&gt;&lt;br&gt;&lt;/div&gt;" style="shape=folder;fontStyle=1;spacingTop=10;tabWidth=40;tabHeight=14;tabPosition=left;html=1;" vertex="1" parent="1">
          <mxGeometry x="19" y="310" width="790" height="190" as="geometry" />
        </mxCell>
        <mxCell id="sUBBfoWSyGXVU3_cliYD-16" value="&lt;&lt;component&gt;&gt;&#xa;AuthenticationBusiness&#xa;" style="shape=module;align=left;spacingLeft=20;align=center;verticalAlign=top;" vertex="1" parent="1">
          <mxGeometry x="30" y="380" width="180" height="60" as="geometry" />
        </mxCell>
        <mxCell id="sUBBfoWSyGXVU3_cliYD-17" value="SimuDest Business" style="text;align=center;fontStyle=1;verticalAlign=middle;spacingLeft=3;spacingRight=3;strokeColor=none;rotatable=0;points=[[0,0.5],[1,0.5]];portConstraint=eastwest;" vertex="1" parent="1">
          <mxGeometry x="375" y="330" width="80" height="26" as="geometry" />
        </mxCell>
        <mxCell id="sUBBfoWSyGXVU3_cliYD-18" value="&lt;&lt;component&gt;&gt;&#xa;AdministrationBusiness&#xa;" style="shape=module;align=left;spacingLeft=20;align=center;verticalAlign=top;" vertex="1" parent="1">
          <mxGeometry x="230" y="380" width="180" height="60" as="geometry" />
        </mxCell>
        <mxCell id="sUBBfoWSyGXVU3_cliYD-19" value="&lt;&lt;component&gt;&gt;&#xa;MainBusiness&#xa;" style="shape=module;align=left;spacingLeft=20;align=center;verticalAlign=top;" vertex="1" parent="1">
          <mxGeometry x="428" y="380" width="161" height="60" as="geometry" />
        </mxCell>
        <mxCell id="sUBBfoWSyGXVU3_cliYD-20" value="&lt;&lt;component&gt;&gt;&#xa;ConvocatoriaBusiness&#xa;" style="shape=module;align=left;spacingLeft=20;align=center;verticalAlign=top;" vertex="1" parent="1">
          <mxGeometry x="608" y="380" width="181" height="60" as="geometry" />
        </mxCell>
        <mxCell id="sUBBfoWSyGXVU3_cliYD-21" value="&lt;div&gt;&lt;br&gt;&lt;/div&gt;&lt;div&gt;&lt;br&gt;&lt;/div&gt;" style="shape=folder;fontStyle=1;spacingTop=10;tabWidth=40;tabHeight=14;tabPosition=left;html=1;" vertex="1" parent="1">
          <mxGeometry x="20" y="600" width="790" height="290" as="geometry" />
        </mxCell>
        <mxCell id="sUBBfoWSyGXVU3_cliYD-22" value="&lt;&lt;component&gt;&gt;&#xa;ConvocatoriaData&#xa;" style="shape=module;align=left;spacingLeft=20;align=center;verticalAlign=top;" vertex="1" parent="1">
          <mxGeometry x="370" y="770" width="180" height="60" as="geometry" />
        </mxCell>
        <mxCell id="sUBBfoWSyGXVU3_cliYD-23" value="SimuDest Data" style="text;align=center;fontStyle=1;verticalAlign=middle;spacingLeft=3;spacingRight=3;strokeColor=none;rotatable=0;points=[[0,0.5],[1,0.5]];portConstraint=eastwest;" vertex="1" parent="1">
          <mxGeometry x="375" y="630" width="80" height="26" as="geometry" />
        </mxCell>
        <mxCell id="sUBBfoWSyGXVU3_cliYD-24" value="&lt;&lt;component&gt;&gt;&#xa;UsuarioData&#xa;" style="shape=module;align=left;spacingLeft=20;align=center;verticalAlign=top;" vertex="1" parent="1">
          <mxGeometry x="29" y="760" width="131" height="60" as="geometry" />
        </mxCell>
        <mxCell id="sUBBfoWSyGXVU3_cliYD-27" value="&lt;&lt;component&gt;&gt;&#xa;GrupoData&#xa;" style="shape=module;align=left;spacingLeft=20;align=center;verticalAlign=top;" vertex="1" parent="1">
          <mxGeometry x="209" y="770" width="131" height="60" as="geometry" />
        </mxCell>
        <mxCell id="sUBBfoWSyGXVU3_cliYD-28" value="&lt;&lt;component&gt;&gt;&#xa;OrganismoData&#xa;" style="shape=module;align=left;spacingLeft=20;align=center;verticalAlign=top;" vertex="1" parent="1">
          <mxGeometry x="120" y="690" width="131" height="60" as="geometry" />
        </mxCell>
        <mxCell id="sUBBfoWSyGXVU3_cliYD-29" value="&lt;&lt;component&gt;&gt;&#xa;EspecialidadData&#xa;" style="shape=module;align=left;spacingLeft=20;align=center;verticalAlign=top;" vertex="1" parent="1">
          <mxGeometry x="288" y="690" width="140" height="60" as="geometry" />
        </mxCell>
        <mxCell id="sUBBfoWSyGXVU3_cliYD-30" value="&lt;&lt;component&gt;&gt;&#xa;OpositorData&#xa;" style="shape=module;align=left;spacingLeft=20;align=center;verticalAlign=top;" vertex="1" parent="1">
          <mxGeometry x="480" y="690" width="131" height="60" as="geometry" />
        </mxCell>
        <mxCell id="sUBBfoWSyGXVU3_cliYD-31" value="&lt;&lt;component&gt;&gt;&#xa;EleccionData&#xa;" style="shape=module;align=left;spacingLeft=20;align=center;verticalAlign=top;" vertex="1" parent="1">
          <mxGeometry x="580" y="770" width="131" height="60" as="geometry" />
        </mxCell>
        <mxCell id="sUBBfoWSyGXVU3_cliYD-32" value="&lt;&lt;component&gt;&gt;&#xa;PlazaData&#xa;" style="shape=module;align=left;spacingLeft=20;align=center;verticalAlign=top;" vertex="1" parent="1">
          <mxGeometry x="658" y="690" width="131" height="60" as="geometry" />
        </mxCell>
        <mxCell id="sUBBfoWSyGXVU3_cliYD-33" value="" style="rounded=0;orthogonalLoop=1;jettySize=auto;html=1;endArrow=none;endFill=0;sketch=0;sourcePerimeterSpacing=0;targetPerimeterSpacing=0;exitX=0.5;exitY=0;exitDx=0;exitDy=0;" edge="1" target="sUBBfoWSyGXVU3_cliYD-35" parent="1" source="sUBBfoWSyGXVU3_cliYD-16">
          <mxGeometry relative="1" as="geometry">
            <mxPoint x="390" y="335" as="sourcePoint" />
          </mxGeometry>
        </mxCell>
        <mxCell id="sUBBfoWSyGXVU3_cliYD-34" value="" style="rounded=0;orthogonalLoop=1;jettySize=auto;html=1;endArrow=halfCircle;endFill=0;entryX=0.5;entryY=0.5;endSize=6;strokeWidth=1;sketch=0;exitX=0.5;exitY=1;exitDx=0;exitDy=0;" edge="1" target="sUBBfoWSyGXVU3_cliYD-35" parent="1" source="sUBBfoWSyGXVU3_cliYD-2">
          <mxGeometry relative="1" as="geometry">
            <mxPoint x="430" y="335" as="sourcePoint" />
          </mxGeometry>
        </mxCell>
        <mxCell id="sUBBfoWSyGXVU3_cliYD-35" value="" style="ellipse;whiteSpace=wrap;html=1;align=center;aspect=fixed;resizable=0;points=[];outlineConnect=0;sketch=0;" vertex="1" parent="1">
          <mxGeometry x="115" y="280" width="10" height="10" as="geometry" />
        </mxCell>
        <mxCell id="sUBBfoWSyGXVU3_cliYD-36" value="" style="rounded=0;orthogonalLoop=1;jettySize=auto;html=1;endArrow=none;endFill=0;sketch=0;sourcePerimeterSpacing=0;targetPerimeterSpacing=0;exitX=0.5;exitY=0;exitDx=0;exitDy=0;" edge="1" target="sUBBfoWSyGXVU3_cliYD-38" parent="1" source="sUBBfoWSyGXVU3_cliYD-18">
          <mxGeometry relative="1" as="geometry">
            <mxPoint x="390" y="305" as="sourcePoint" />
          </mxGeometry>
        </mxCell>
        <mxCell id="sUBBfoWSyGXVU3_cliYD-37" value="" style="rounded=0;orthogonalLoop=1;jettySize=auto;html=1;endArrow=halfCircle;endFill=0;entryX=0.5;entryY=0.5;endSize=6;strokeWidth=1;sketch=0;exitX=0.5;exitY=1;exitDx=0;exitDy=0;" edge="1" target="sUBBfoWSyGXVU3_cliYD-38" parent="1" source="sUBBfoWSyGXVU3_cliYD-5">
          <mxGeometry relative="1" as="geometry">
            <mxPoint x="430" y="305" as="sourcePoint" />
          </mxGeometry>
        </mxCell>
        <mxCell id="sUBBfoWSyGXVU3_cliYD-38" value="" style="ellipse;whiteSpace=wrap;html=1;align=center;aspect=fixed;resizable=0;points=[];outlineConnect=0;sketch=0;" vertex="1" parent="1">
          <mxGeometry x="315" y="280" width="10" height="10" as="geometry" />
        </mxCell>
        <mxCell id="sUBBfoWSyGXVU3_cliYD-40" value="" style="rounded=0;orthogonalLoop=1;jettySize=auto;html=1;endArrow=none;endFill=0;sketch=0;sourcePerimeterSpacing=0;targetPerimeterSpacing=0;exitX=0.5;exitY=0;exitDx=0;exitDy=0;" edge="1" target="sUBBfoWSyGXVU3_cliYD-42" parent="1" source="sUBBfoWSyGXVU3_cliYD-19">
          <mxGeometry relative="1" as="geometry">
            <mxPoint x="390" y="305" as="sourcePoint" />
          </mxGeometry>
        </mxCell>
        <mxCell id="sUBBfoWSyGXVU3_cliYD-41" value="" style="rounded=0;orthogonalLoop=1;jettySize=auto;html=1;endArrow=halfCircle;endFill=0;entryX=0.5;entryY=0.5;endSize=6;strokeWidth=1;sketch=0;exitX=0.5;exitY=1;exitDx=0;exitDy=0;" edge="1" target="sUBBfoWSyGXVU3_cliYD-42" parent="1" source="sUBBfoWSyGXVU3_cliYD-6">
          <mxGeometry relative="1" as="geometry">
            <mxPoint x="430" y="305" as="sourcePoint" />
          </mxGeometry>
        </mxCell>
        <mxCell id="sUBBfoWSyGXVU3_cliYD-42" value="" style="ellipse;whiteSpace=wrap;html=1;align=center;aspect=fixed;resizable=0;points=[];outlineConnect=0;sketch=0;" vertex="1" parent="1">
          <mxGeometry x="503.5" y="280" width="10" height="10" as="geometry" />
        </mxCell>
        <mxCell id="sUBBfoWSyGXVU3_cliYD-43" value="" style="rounded=0;orthogonalLoop=1;jettySize=auto;html=1;endArrow=none;endFill=0;sketch=0;sourcePerimeterSpacing=0;targetPerimeterSpacing=0;exitX=0.5;exitY=0;exitDx=0;exitDy=0;" edge="1" target="sUBBfoWSyGXVU3_cliYD-45" parent="1" source="sUBBfoWSyGXVU3_cliYD-20">
          <mxGeometry relative="1" as="geometry">
            <mxPoint x="390" y="305" as="sourcePoint" />
          </mxGeometry>
        </mxCell>
        <mxCell id="sUBBfoWSyGXVU3_cliYD-44" value="" style="rounded=0;orthogonalLoop=1;jettySize=auto;html=1;endArrow=halfCircle;endFill=0;entryX=0.5;entryY=0.5;endSize=6;strokeWidth=1;sketch=0;exitX=0.5;exitY=1;exitDx=0;exitDy=0;" edge="1" target="sUBBfoWSyGXVU3_cliYD-45" parent="1" source="sUBBfoWSyGXVU3_cliYD-7">
          <mxGeometry relative="1" as="geometry">
            <mxPoint x="430" y="305" as="sourcePoint" />
          </mxGeometry>
        </mxCell>
        <mxCell id="sUBBfoWSyGXVU3_cliYD-45" value="" style="ellipse;whiteSpace=wrap;html=1;align=center;aspect=fixed;resizable=0;points=[];outlineConnect=0;sketch=0;" vertex="1" parent="1">
          <mxGeometry x="693.5" y="280" width="10" height="10" as="geometry" />
        </mxCell>
        <mxCell id="sUBBfoWSyGXVU3_cliYD-46" value="" style="rounded=0;orthogonalLoop=1;jettySize=auto;html=1;endArrow=none;endFill=0;sketch=0;sourcePerimeterSpacing=0;targetPerimeterSpacing=0;exitX=0.5;exitY=0;exitDx=0;exitDy=0;" edge="1" target="sUBBfoWSyGXVU3_cliYD-48" parent="1" source="sUBBfoWSyGXVU3_cliYD-24">
          <mxGeometry relative="1" as="geometry">
            <mxPoint x="390" y="725" as="sourcePoint" />
          </mxGeometry>
        </mxCell>
        <mxCell id="sUBBfoWSyGXVU3_cliYD-48" value="" style="ellipse;whiteSpace=wrap;html=1;align=center;aspect=fixed;resizable=0;points=[];outlineConnect=0;sketch=0;" vertex="1" parent="1">
          <mxGeometry x="89.5" y="560" width="10" height="10" as="geometry" />
        </mxCell>
        <mxCell id="sUBBfoWSyGXVU3_cliYD-49" value="" style="rounded=0;orthogonalLoop=1;jettySize=auto;html=1;endArrow=none;endFill=0;sketch=0;sourcePerimeterSpacing=0;targetPerimeterSpacing=0;exitX=0.5;exitY=0;exitDx=0;exitDy=0;" edge="1" target="sUBBfoWSyGXVU3_cliYD-51" parent="1" source="sUBBfoWSyGXVU3_cliYD-28">
          <mxGeometry relative="1" as="geometry">
            <mxPoint x="390" y="665" as="sourcePoint" />
          </mxGeometry>
        </mxCell>
        <mxCell id="sUBBfoWSyGXVU3_cliYD-50" value="" style="rounded=0;orthogonalLoop=1;jettySize=auto;html=1;endArrow=halfCircle;endFill=0;endSize=6;strokeWidth=1;sketch=0;exitX=0.5;exitY=1;exitDx=0;exitDy=0;" edge="1" target="sUBBfoWSyGXVU3_cliYD-51" parent="1" source="sUBBfoWSyGXVU3_cliYD-18">
          <mxGeometry relative="1" as="geometry">
            <mxPoint x="430" y="665" as="sourcePoint" />
            <mxPoint x="210" y="550" as="targetPoint" />
          </mxGeometry>
        </mxCell>
        <mxCell id="sUBBfoWSyGXVU3_cliYD-51" value="" style="ellipse;whiteSpace=wrap;html=1;align=center;aspect=fixed;resizable=0;points=[];outlineConnect=0;sketch=0;" vertex="1" parent="1">
          <mxGeometry x="180.5" y="560" width="10" height="10" as="geometry" />
        </mxCell>
        <mxCell id="sUBBfoWSyGXVU3_cliYD-52" value="" style="rounded=0;orthogonalLoop=1;jettySize=auto;html=1;endArrow=none;endFill=0;sketch=0;sourcePerimeterSpacing=0;targetPerimeterSpacing=0;exitX=0.5;exitY=0;exitDx=0;exitDy=0;" edge="1" target="sUBBfoWSyGXVU3_cliYD-54" parent="1" source="sUBBfoWSyGXVU3_cliYD-27">
          <mxGeometry relative="1" as="geometry">
            <mxPoint x="390" y="665" as="sourcePoint" />
          </mxGeometry>
        </mxCell>
        <mxCell id="sUBBfoWSyGXVU3_cliYD-53" value="" style="rounded=0;orthogonalLoop=1;jettySize=auto;html=1;endArrow=halfCircle;endFill=0;endSize=6;strokeWidth=1;sketch=0;exitX=0.5;exitY=1;exitDx=0;exitDy=0;" edge="1" target="sUBBfoWSyGXVU3_cliYD-54" parent="1" source="sUBBfoWSyGXVU3_cliYD-18">
          <mxGeometry relative="1" as="geometry">
            <mxPoint x="430" y="665" as="sourcePoint" />
            <mxPoint x="280" y="550" as="targetPoint" />
          </mxGeometry>
        </mxCell>
        <mxCell id="sUBBfoWSyGXVU3_cliYD-54" value="" style="ellipse;whiteSpace=wrap;html=1;align=center;aspect=fixed;resizable=0;points=[];outlineConnect=0;sketch=0;" vertex="1" parent="1">
          <mxGeometry x="269.5" y="560" width="10" height="10" as="geometry" />
        </mxCell>
        <mxCell id="sUBBfoWSyGXVU3_cliYD-55" value="" style="rounded=0;orthogonalLoop=1;jettySize=auto;html=1;endArrow=none;endFill=0;sketch=0;sourcePerimeterSpacing=0;targetPerimeterSpacing=0;exitX=0.5;exitY=0;exitDx=0;exitDy=0;" edge="1" target="sUBBfoWSyGXVU3_cliYD-57" parent="1" source="sUBBfoWSyGXVU3_cliYD-29">
          <mxGeometry relative="1" as="geometry">
            <mxPoint x="390" y="665" as="sourcePoint" />
          </mxGeometry>
        </mxCell>
        <mxCell id="sUBBfoWSyGXVU3_cliYD-56" value="" style="rounded=0;orthogonalLoop=1;jettySize=auto;html=1;endArrow=halfCircle;endFill=0;endSize=6;strokeWidth=1;sketch=0;exitX=0.5;exitY=1;exitDx=0;exitDy=0;" edge="1" target="sUBBfoWSyGXVU3_cliYD-57" parent="1" source="sUBBfoWSyGXVU3_cliYD-18">
          <mxGeometry relative="1" as="geometry">
            <mxPoint x="430" y="665" as="sourcePoint" />
            <mxPoint x="360" y="540" as="targetPoint" />
          </mxGeometry>
        </mxCell>
        <mxCell id="sUBBfoWSyGXVU3_cliYD-57" value="" style="ellipse;whiteSpace=wrap;html=1;align=center;aspect=fixed;resizable=0;points=[];outlineConnect=0;sketch=0;" vertex="1" parent="1">
          <mxGeometry x="353" y="560" width="10" height="10" as="geometry" />
        </mxCell>
        <mxCell id="sUBBfoWSyGXVU3_cliYD-58" value="" style="rounded=0;orthogonalLoop=1;jettySize=auto;html=1;endArrow=none;endFill=0;sketch=0;sourcePerimeterSpacing=0;targetPerimeterSpacing=0;exitX=0.5;exitY=0;exitDx=0;exitDy=0;" edge="1" target="sUBBfoWSyGXVU3_cliYD-60" parent="1" source="sUBBfoWSyGXVU3_cliYD-22">
          <mxGeometry relative="1" as="geometry">
            <mxPoint x="390" y="665" as="sourcePoint" />
          </mxGeometry>
        </mxCell>
        <mxCell id="sUBBfoWSyGXVU3_cliYD-60" value="" style="ellipse;whiteSpace=wrap;html=1;align=center;aspect=fixed;resizable=0;points=[];outlineConnect=0;sketch=0;" vertex="1" parent="1">
          <mxGeometry x="455" y="560" width="10" height="10" as="geometry" />
        </mxCell>
        <mxCell id="sUBBfoWSyGXVU3_cliYD-61" value="" style="rounded=0;orthogonalLoop=1;jettySize=auto;html=1;endArrow=none;endFill=0;sketch=0;sourcePerimeterSpacing=0;targetPerimeterSpacing=0;exitX=0.5;exitY=0;exitDx=0;exitDy=0;" edge="1" target="sUBBfoWSyGXVU3_cliYD-63" parent="1" source="sUBBfoWSyGXVU3_cliYD-30">
          <mxGeometry relative="1" as="geometry">
            <mxPoint x="390" y="665" as="sourcePoint" />
          </mxGeometry>
        </mxCell>
        <mxCell id="sUBBfoWSyGXVU3_cliYD-62" value="" style="rounded=0;orthogonalLoop=1;jettySize=auto;html=1;endArrow=halfCircle;endFill=0;entryX=0.5;entryY=0.5;endSize=6;strokeWidth=1;sketch=0;exitX=0.5;exitY=1;exitDx=0;exitDy=0;" edge="1" target="sUBBfoWSyGXVU3_cliYD-63" parent="1" source="sUBBfoWSyGXVU3_cliYD-20">
          <mxGeometry relative="1" as="geometry">
            <mxPoint x="430" y="665" as="sourcePoint" />
          </mxGeometry>
        </mxCell>
        <mxCell id="sUBBfoWSyGXVU3_cliYD-63" value="" style="ellipse;whiteSpace=wrap;html=1;align=center;aspect=fixed;resizable=0;points=[];outlineConnect=0;sketch=0;" vertex="1" parent="1">
          <mxGeometry x="540" y="560" width="10" height="10" as="geometry" />
        </mxCell>
        <mxCell id="sUBBfoWSyGXVU3_cliYD-64" value="" style="rounded=0;orthogonalLoop=1;jettySize=auto;html=1;endArrow=none;endFill=0;sketch=0;sourcePerimeterSpacing=0;targetPerimeterSpacing=0;exitX=0.5;exitY=0;exitDx=0;exitDy=0;" edge="1" target="sUBBfoWSyGXVU3_cliYD-66" parent="1" source="sUBBfoWSyGXVU3_cliYD-31">
          <mxGeometry relative="1" as="geometry">
            <mxPoint x="390" y="665" as="sourcePoint" />
          </mxGeometry>
        </mxCell>
        <mxCell id="sUBBfoWSyGXVU3_cliYD-65" value="" style="rounded=0;orthogonalLoop=1;jettySize=auto;html=1;endArrow=halfCircle;endFill=0;entryX=0.5;entryY=0.5;endSize=6;strokeWidth=1;sketch=0;exitX=0.5;exitY=1;exitDx=0;exitDy=0;" edge="1" target="sUBBfoWSyGXVU3_cliYD-66" parent="1" source="sUBBfoWSyGXVU3_cliYD-20">
          <mxGeometry relative="1" as="geometry">
            <mxPoint x="430" y="665" as="sourcePoint" />
          </mxGeometry>
        </mxCell>
        <mxCell id="sUBBfoWSyGXVU3_cliYD-66" value="" style="ellipse;whiteSpace=wrap;html=1;align=center;aspect=fixed;resizable=0;points=[];outlineConnect=0;sketch=0;" vertex="1" parent="1">
          <mxGeometry x="640.5" y="560" width="10" height="10" as="geometry" />
        </mxCell>
        <mxCell id="sUBBfoWSyGXVU3_cliYD-67" value="" style="rounded=0;orthogonalLoop=1;jettySize=auto;html=1;endArrow=none;endFill=0;sketch=0;sourcePerimeterSpacing=0;targetPerimeterSpacing=0;exitX=0.5;exitY=0;exitDx=0;exitDy=0;" edge="1" target="sUBBfoWSyGXVU3_cliYD-69" parent="1" source="sUBBfoWSyGXVU3_cliYD-32">
          <mxGeometry relative="1" as="geometry">
            <mxPoint x="390" y="665" as="sourcePoint" />
          </mxGeometry>
        </mxCell>
        <mxCell id="sUBBfoWSyGXVU3_cliYD-68" value="" style="rounded=0;orthogonalLoop=1;jettySize=auto;html=1;endArrow=halfCircle;endFill=0;entryX=0.5;entryY=0.5;endSize=6;strokeWidth=1;sketch=0;exitX=0.5;exitY=1;exitDx=0;exitDy=0;" edge="1" target="sUBBfoWSyGXVU3_cliYD-69" parent="1" source="sUBBfoWSyGXVU3_cliYD-20">
          <mxGeometry relative="1" as="geometry">
            <mxPoint x="430" y="665" as="sourcePoint" />
          </mxGeometry>
        </mxCell>
        <mxCell id="sUBBfoWSyGXVU3_cliYD-69" value="" style="ellipse;whiteSpace=wrap;html=1;align=center;aspect=fixed;resizable=0;points=[];outlineConnect=0;sketch=0;" vertex="1" parent="1">
          <mxGeometry x="718.5" y="560" width="10" height="10" as="geometry" />
        </mxCell>
        <mxCell id="sUBBfoWSyGXVU3_cliYD-70" value="" style="rounded=0;orthogonalLoop=1;jettySize=auto;html=1;endArrow=halfCircle;endFill=0;endSize=6;strokeWidth=1;sketch=0;exitX=0.5;exitY=1;exitDx=0;exitDy=0;" edge="1" parent="1" source="sUBBfoWSyGXVU3_cliYD-19" target="sUBBfoWSyGXVU3_cliYD-60">
          <mxGeometry relative="1" as="geometry">
            <mxPoint x="708.5" y="450" as="sourcePoint" />
            <mxPoint x="450" y="530" as="targetPoint" />
          </mxGeometry>
        </mxCell>
        <mxCell id="sUBBfoWSyGXVU3_cliYD-71" value="" style="rounded=0;orthogonalLoop=1;jettySize=auto;html=1;endArrow=halfCircle;endFill=0;endSize=6;strokeWidth=1;sketch=0;exitX=0.5;exitY=1;exitDx=0;exitDy=0;" edge="1" parent="1" source="sUBBfoWSyGXVU3_cliYD-19" target="sUBBfoWSyGXVU3_cliYD-48">
          <mxGeometry relative="1" as="geometry">
            <mxPoint x="130" y="450" as="sourcePoint" />
            <mxPoint x="130" y="575" as="targetPoint" />
          </mxGeometry>
        </mxCell>
        <mxCell id="sUBBfoWSyGXVU3_cliYD-72" value="" style="rounded=0;orthogonalLoop=1;jettySize=auto;html=1;endArrow=halfCircle;endFill=0;endSize=6;strokeWidth=1;sketch=0;exitX=0.5;exitY=1;exitDx=0;exitDy=0;" edge="1" parent="1" source="sUBBfoWSyGXVU3_cliYD-20" target="sUBBfoWSyGXVU3_cliYD-48">
          <mxGeometry relative="1" as="geometry">
            <mxPoint x="140" y="460" as="sourcePoint" />
            <mxPoint x="140" y="585" as="targetPoint" />
          </mxGeometry>
        </mxCell>
        <mxCell id="sUBBfoWSyGXVU3_cliYD-73" value="" style="rounded=0;orthogonalLoop=1;jettySize=auto;html=1;endArrow=halfCircle;endFill=0;endSize=6;strokeWidth=1;sketch=0;exitX=0.5;exitY=1;exitDx=0;exitDy=0;" edge="1" parent="1" target="sUBBfoWSyGXVU3_cliYD-48">
          <mxGeometry relative="1" as="geometry">
            <mxPoint x="120" y="440" as="sourcePoint" />
            <mxPoint x="90" y="530" as="targetPoint" />
          </mxGeometry>
        </mxCell>
        <mxCell id="sUBBfoWSyGXVU3_cliYD-74" value="" style="rounded=0;orthogonalLoop=1;jettySize=auto;html=1;endArrow=halfCircle;endFill=0;endSize=6;strokeWidth=1;sketch=0;exitX=0.5;exitY=1;exitDx=0;exitDy=0;" edge="1" parent="1" target="sUBBfoWSyGXVU3_cliYD-60">
          <mxGeometry relative="1" as="geometry">
            <mxPoint x="698.5" y="440" as="sourcePoint" />
            <mxPoint x="500" y="540" as="targetPoint" />
          </mxGeometry>
        </mxCell>
        <mxCell id="sUBBfoWSyGXVU3_cliYD-75" value="" style="rounded=0;orthogonalLoop=1;jettySize=auto;html=1;endArrow=halfCircle;endFill=0;endSize=6;strokeWidth=1;sketch=0;exitX=0.5;exitY=1;exitDx=0;exitDy=0;" edge="1" parent="1" source="sUBBfoWSyGXVU3_cliYD-19" target="sUBBfoWSyGXVU3_cliYD-51">
          <mxGeometry relative="1" as="geometry">
            <mxPoint x="329.9999999999999" y="450" as="sourcePoint" />
            <mxPoint x="195.5" y="575" as="targetPoint" />
          </mxGeometry>
        </mxCell>
        <mxCell id="sUBBfoWSyGXVU3_cliYD-76" value="" style="rounded=0;orthogonalLoop=1;jettySize=auto;html=1;endArrow=halfCircle;endFill=0;endSize=6;strokeWidth=1;sketch=0;exitX=0.5;exitY=1;exitDx=0;exitDy=0;" edge="1" parent="1" source="sUBBfoWSyGXVU3_cliYD-19" target="sUBBfoWSyGXVU3_cliYD-54">
          <mxGeometry relative="1" as="geometry">
            <mxPoint x="329.9999999999999" y="450" as="sourcePoint" />
            <mxPoint x="284.5" y="575" as="targetPoint" />
          </mxGeometry>
        </mxCell>
        <mxCell id="sUBBfoWSyGXVU3_cliYD-77" value="" style="rounded=0;orthogonalLoop=1;jettySize=auto;html=1;endArrow=halfCircle;endFill=0;endSize=6;strokeWidth=1;sketch=0;exitX=0.5;exitY=1;exitDx=0;exitDy=0;" edge="1" parent="1" source="sUBBfoWSyGXVU3_cliYD-19" target="sUBBfoWSyGXVU3_cliYD-57">
          <mxGeometry relative="1" as="geometry">
            <mxPoint x="329.9999999999999" y="450" as="sourcePoint" />
            <mxPoint x="368" y="575" as="targetPoint" />
          </mxGeometry>
        </mxCell>
      </root>
    </mxGraphModel>
  </diagram>
</mxfile>
